<svg width="964" height="913" viewBox="0 0 964 913" fill="none" xmlns="http://www.w3.org/2000/svg">
<path d="M818.806 607.964L818.795 607.989L818.785 608.013L811.82 624.384L795.205 653.713L776.023 681.359L765.696 693.334L763.773 694.815L760.747 696.651L760.403 696.821L759.228 696.958L758.391 697.055L551.284 491.12L841.483 473.775L842.127 479.318L842.915 496.641L840.335 529.754L834.268 563.152L824.709 594.29L818.806 607.964Z" stroke="#FF9900" stroke-width="20"/>
<path d="M711.466 604.316C704.079 594.723 705.859 584.023 711.454 579.715C717.05 575.406 727.849 576.421 735.236 586.014C742.623 595.608 740.843 606.308 735.247 610.616C729.652 614.924 718.852 613.91 711.466 604.316Z" stroke="#FF9900" stroke-width="15"/>
<ellipse cx="731.399" cy="527.758" rx="10" ry="9.5" transform="rotate(142.405 731.399 527.758)" fill="#FF9900"/>
<ellipse cx="654.848" cy="524.226" rx="10.5" ry="11" transform="rotate(142.405 654.848 524.226)" fill="#FF9900"/>
<path d="M803.081 526.872L800.347 547.908L795.295 567.573L788.231 586.264L780.252 603.766L772.059 620.171L761.58 637.705L751.069 652.74L744.671 660.821L736.383 669.727" stroke="#FF9900" stroke-width="20"/>
<path d="M810.623 318.132L810.634 318.156L810.646 318.18L818.527 334.131L829.949 365.844L838.422 398.409L840.778 414.045L840.648 416.469L840.069 419.961L839.974 420.332L839.312 421.313L838.84 422.011L547.675 444.936L723.605 213.495L728.23 216.618L741.884 227.308L765.322 250.841L786.704 277.205L804.096 304.744L810.623 318.132Z" stroke="#FF9900" stroke-width="20"/>
<path d="M737.915 397.182C725.824 396.534 718.868 388.212 719.245 381.16C719.623 374.108 727.429 366.577 739.52 367.225C751.61 367.872 758.567 376.194 758.189 383.246C757.812 390.298 750.006 397.829 737.915 397.182Z" stroke="#FF9900" stroke-width="15"/>
<ellipse cx="692.827" cy="332.177" rx="10" ry="9.5" transform="rotate(93.0661 692.827 332.177)" fill="#FF9900"/>
<ellipse cx="640.269" cy="387.946" rx="10.5" ry="11" transform="rotate(93.0661 640.269 387.946)" fill="#FF9900"/>
<path d="M738.862 277.222L753.038 293.003L764.664 309.649L774.24 327.186L782.317 344.643L789.424 361.548L795.897 380.921L800.453 398.691L802.414 408.81L803.77 420.9" stroke="#FF9900" stroke-width="20"/>
<path d="M592.786 140.889L592.812 140.897L592.837 140.904L609.913 145.897L640.992 158.949L670.701 174.748L683.807 183.595L685.503 185.331L687.683 188.12L687.892 188.442L688.166 189.593L688.361 190.412L508.199 420.292L456.861 134.143L462.29 132.852L479.401 130.033L512.588 128.703L546.467 130.802L578.513 136.634L592.786 140.889Z" stroke="#FF9900" stroke-width="20"/>
<path d="M601.782 247.914C593.123 256.377 582.288 255.867 577.352 250.817C572.415 245.767 572.153 234.923 580.812 226.46C589.471 217.996 600.306 218.506 605.242 223.557C610.178 228.607 610.44 239.451 601.782 247.914Z" stroke="#FF9900" stroke-width="15"/>
<ellipse cx="523.411" cy="237.118" rx="10" ry="9.5" transform="rotate(45.6546 523.411 237.118)" fill="#FF9900"/>
<ellipse cx="528.902" cy="313.554" rx="10.5" ry="11" transform="rotate(45.6546 528.902 313.554)" fill="#FF9900"/>
<path d="M514.104 166.037L535.316 166.28L555.439 168.985L574.831 173.803L593.149 179.669L610.404 185.877L629.048 194.222L645.214 202.893L653.991 208.297L663.809 215.48" stroke="#FF9900" stroke-width="20"/>
<path d="M305.816 184.313L305.839 184.299L305.861 184.285L320.967 174.887L351.416 160.427L382.999 148.819L398.331 144.95L400.756 144.843L404.288 145.078L404.667 145.137L405.708 145.7L406.449 146.101L457.655 433.644L210.162 281.119L212.819 276.212L222.127 261.58L243.262 235.959L267.416 212.109L293.128 192.114L305.816 184.313Z" stroke="#FF9900" stroke-width="20"/>
<path d="M338.655 276.305C339.19 288.401 331.585 296.136 324.53 296.448C317.475 296.759 309.219 289.725 308.684 277.629C308.15 265.533 315.754 257.797 322.809 257.486C329.864 257.174 338.121 264.208 338.655 276.305Z" stroke="#FF9900" stroke-width="15"/>
<ellipse cx="386.41" cy="269.932" rx="10" ry="9.5" transform="rotate(-2.52961 386.41 269.932)" fill="#FF9900"/>
<ellipse cx="391.907" cy="347.048" rx="10.5" ry="11" transform="rotate(-2.52961 391.907 347.048)" fill="#FF9900"/>
<path d="M272.098 259.721L286.422 244.074L301.854 230.88L318.374 219.64L334.961 209.898L351.091 201.178L369.742 192.847L386.982 186.58L396.862 183.641L408.762 181.113" stroke="#FF9900" stroke-width="20"/>
<path d="M605.453 801.243L605.428 801.251L605.402 801.259L588.461 806.693L555.406 813.297L521.947 816.858L506.134 816.874L503.756 816.387L500.388 815.298L500.035 815.149L499.163 814.349L498.542 813.779L518.953 522.427L721.814 730.666L718.041 734.778L705.449 746.7L678.707 766.398L649.469 783.644L619.659 796.77L605.453 801.243Z" stroke="#FF9900" stroke-width="20"/>
<path d="M538.032 717.639C540.462 705.777 549.721 700.128 556.64 701.546C563.558 702.963 569.851 711.797 567.422 723.659C564.992 735.52 555.733 741.169 548.814 739.752C541.896 738.335 535.602 729.501 538.032 717.639Z" stroke="#FF9900" stroke-width="15"/>
<ellipse cx="608.993" cy="682.666" rx="10" ry="9.5" transform="rotate(-168.425 608.993 682.666)" fill="#FF9900"/>
<ellipse cx="561.615" cy="622.435" rx="10.5" ry="11" transform="rotate(-168.425 561.615 622.435)" fill="#FF9900"/>
<path d="M656.531 736.326L638.826 748.011L620.643 757.046L601.882 763.921L583.422 769.327L565.652 773.853L545.534 777.389L527.286 779.265L516.988 779.708L504.831 779.259" stroke="#FF9900" stroke-width="20"/>
<path d="M316.44 765.675L316.417 765.661L316.395 765.647L301.322 756.194L274.971 735.175L250.685 711.884L240.483 699.803L239.323 697.671L237.985 694.394L237.871 694.028L237.921 692.845L237.957 692.004L473.895 519.854L445.394 809.17L439.819 808.935L422.587 806.989L390.291 799.235L358.263 787.991L329.016 773.656L316.44 765.675Z" stroke="#FF9900" stroke-width="20"/>
<path d="M336.92 660.244C347.556 654.458 357.843 657.898 361.218 664.101C364.593 670.305 361.893 680.81 351.257 686.597C340.621 692.383 330.334 688.943 326.959 682.739C323.584 676.536 326.284 666.031 336.92 660.244Z" stroke="#FF9900" stroke-width="15"/>
<ellipse cx="409.392" cy="691.967" rx="10" ry="9.5" transform="rotate(-118.548 409.392 691.967)" fill="#FF9900"/>
<ellipse cx="424.917" cy="616.924" rx="10.5" ry="11" transform="rotate(-118.548 424.917 616.924)" fill="#FF9900"/>
<path d="M398.996 762.898L378.651 756.89L360.025 748.808L342.677 738.893L326.647 728.261L311.735 717.591L296.066 704.485L282.872 691.741L275.897 684.152L268.406 674.566" stroke="#FF9900" stroke-width="20"/>
<path d="M117.661 499.907L117.659 499.881L117.657 499.854L116.308 482.114L117.563 448.429L121.873 415.058L125.53 399.674L126.557 397.475L128.398 394.451L128.625 394.143L129.606 393.48L130.304 393.009L408.944 480.545L159.275 629.481L156.152 624.856L147.482 609.838L134.535 579.252L124.554 546.808L118.712 514.764L117.661 499.907Z" stroke="#FF9900" stroke-width="20"/>
<path d="M214.64 453.753C225.613 458.872 228.956 469.19 225.971 475.59C222.985 481.99 212.931 486.059 201.958 480.94C190.985 475.822 187.642 465.503 190.627 459.103C193.613 452.703 203.668 448.634 214.64 453.753Z" stroke="#FF9900" stroke-width="15"/>
<ellipse cx="232.172" cy="530.897" rx="10" ry="9.5" transform="rotate(-64.9917 232.172 530.897)" fill="#FF9900"/>
<ellipse cx="301.762" cy="498.807" rx="10.5" ry="11" transform="rotate(-64.9917 301.762 498.807)" fill="#FF9900"/>
<path d="M168.937 564.669L161.685 544.734L157.121 524.949L154.792 505.104L153.822 485.894L153.548 467.558L154.783 447.169L157.197 428.985L159.159 418.865L162.419 407.145" stroke="#FF9900" stroke-width="20"/>
<ellipse cx="272.5" cy="259.5" rx="9.5" ry="10.5" fill="#FF9900"/>
<ellipse cx="513.5" cy="166" rx="9.5" ry="10" fill="#FF9900"/>
<ellipse cx="737.5" cy="276" rx="10.5" ry="10" fill="#FF9900"/>
<circle cx="803" cy="527" r="10" fill="#FF9900"/>
<circle cx="657" cy="736" r="10" fill="#FF9900"/>
<circle cx="398" cy="763" r="10" fill="#FF9900"/>
<circle cx="169" cy="565" r="10" fill="#FF9900"/>
</svg>
